<?xml version="1.0" standalone="no"?>
<!DOCTYPE svg PUBLIC "-//W3C//DTD SVG 20010904//EN"
 "http://www.w3.org/TR/2001/REC-SVG-20010904/DTD/svg10.dtd">
<svg version="1.0" xmlns="http://www.w3.org/2000/svg"
 width="720.000000pt" height="720.000000pt" viewBox="0 0 720.000000 720.000000"
 preserveAspectRatio="xMidYMid meet">
<metadata>
Created by potrace 1.14, written by Peter Selinger 2001-2017
</metadata>
<g transform="translate(0.000000,720.000000) scale(0.100000,-0.100000)"
fill="#000000" stroke="none">
<path d="M496 6901 c-4 -5 -7 -21 -8 -35 -1 -14 -6 -26 -11 -26 -5 0 -4 -7 3
-15 9 -11 9 -15 1 -15 -8 0 -9 -5 -1 -19 7 -13 7 -22 0 -26 -5 -3 -10 -16 -10
-29 0 -12 -5 -27 -12 -34 -7 -7 -8 -12 -2 -12 5 0 10 -9 10 -20 0 -11 -3 -20
-6 -20 -3 0 -6 -23 -5 -50 0 -28 -3 -50 -6 -50 -12 0 -17 -38 -6 -49 8 -8 7
-11 -2 -11 -8 0 -11 -7 -8 -20 3 -11 1 -20 -4 -20 -6 0 -6 -7 0 -19 6 -10 8
-20 6 -23 -2 -2 -5 -20 -7 -41 -1 -20 -6 -37 -11 -37 -5 0 -4 -6 2 -14 8 -10
9 -16 1 -21 -7 -4 -7 -12 0 -26 6 -10 7 -19 2 -19 -4 0 -8 -9 -8 -20 0 -11 3
-20 7 -20 9 0 6 -27 -4 -36 -3 -4 -2 -15 4 -25 5 -11 6 -19 1 -19 -4 0 -8 -9
-8 -20 0 -11 4 -20 8 -20 5 0 4 -9 -2 -20 -6 -12 -7 -20 -1 -20 10 0 9 -25 -2
-36 -3 -4 -2 -15 4 -25 5 -11 6 -19 1 -19 -4 0 -8 -9 -8 -20 0 -11 4 -20 8
-20 4 0 8 -5 8 -11 0 -5 -6 -7 -12 -3 -7 4 -4 -2 6 -14 13 -15 15 -22 6 -22
-9 0 -8 -7 4 -25 11 -16 12 -25 5 -25 -8 0 -8 -4 0 -13 8 -10 7 -17 -1 -25 -9
-9 -9 -12 1 -12 7 0 10 -4 6 -9 -3 -5 -1 -12 4 -16 6 -3 8 -12 5 -20 -3 -8 -2
-20 2 -27 9 -14 12 -28 16 -70 1 -16 7 -28 12 -28 5 0 6 -3 3 -7 -4 -3 -2 -12
4 -20 9 -10 8 -13 -1 -13 -10 0 -10 -3 0 -15 6 -8 9 -19 5 -25 -3 -5 -1 -10 5
-10 6 0 10 -11 8 -24 -1 -13 3 -31 11 -40 7 -9 10 -16 5 -16 -5 0 -2 -5 6 -10
8 -5 15 -15 16 -22 0 -7 2 -23 2 -36 1 -15 6 -21 14 -16 8 5 9 2 5 -10 -4 -10
-1 -19 8 -22 8 -4 12 -11 9 -16 -4 -6 0 -14 7 -19 12 -7 11 -9 -1 -9 -13 0
-13 -1 0 -10 8 -5 15 -13 15 -17 1 -4 6 -18 13 -30 9 -16 9 -23 2 -23 -6 0 -8
-4 -5 -10 3 -5 -1 -10 -9 -10 -9 0 -16 -4 -16 -9 0 -5 -15 -6 -32 -2 -18 4
-46 4 -62 0 -16 -5 -33 -6 -38 -3 -4 3 -8 0 -8 -5 0 -6 -5 -11 -11 -11 -5 0
-8 4 -4 9 5 10 -52 -3 -63 -13 -2 -3 -13 -1 -23 5 -11 5 -19 6 -20 2 0 -4 -2
-16 -4 -25 -2 -10 2 -18 8 -18 12 0 44 -42 36 -48 -2 -2 7 -10 21 -17 14 -8
21 -14 16 -15 -6 0 -1 -8 10 -19 27 -26 65 -71 59 -71 -2 0 7 -11 21 -25 14
-14 29 -25 34 -25 9 0 14 -14 11 -32 0 -5 3 -8 8 -8 10 0 81 -69 81 -78 0 -4
14 -16 30 -27 30 -20 40 -50 20 -57 -6 -2 -12 -13 -13 -26 0 -12 -6 -22 -11
-22 -5 0 -6 -3 -3 -7 4 -3 0 -17 -8 -30 -12 -17 -12 -23 -3 -23 7 0 2 -10 -12
-21 -14 -11 -20 -18 -13 -15 6 3 -6 -28 -26 -69 -26 -51 -34 -78 -27 -85 7 -7
6 -10 -2 -10 -7 0 -12 -7 -12 -15 0 -9 -7 -18 -16 -22 -13 -5 -13 -7 -2 -14 7
-5 8 -9 2 -9 -6 0 -10 -13 -9 -30 1 -16 -2 -30 -7 -30 -5 0 -6 -4 -3 -10 3 -5
1 -10 -4 -10 -6 0 -10 -3 -10 -7 3 -21 -2 -44 -9 -39 -5 3 -9 0 -10 -7 -2 -21
-13 -72 -19 -87 -4 -8 -7 -18 -8 -22 -2 -5 -4 -10 -5 -13 -1 -3 -3 -8 -4 -12
-1 -5 -5 -14 -10 -22 -7 -11 -6 -12 5 -6 11 7 12 6 2 -7 -7 -8 -10 -18 -6 -21
3 -4 1 -7 -6 -7 -7 0 -10 -4 -6 -9 3 -5 1 -12 -5 -16 -6 -4 -8 -11 -5 -16 4
-5 0 -9 -7 -9 -9 0 -9 -3 2 -10 9 -6 11 -13 5 -17 -10 -8 -15 -27 -18 -65 -1
-10 -6 -18 -11 -18 -5 0 -6 -3 -3 -7 4 -3 2 -12 -4 -20 -9 -9 -8 -13 0 -13 9
0 8 -6 -1 -22 -7 -13 -13 -30 -13 -38 0 -8 -4 -20 -8 -27 -4 -6 -1 -14 5 -16
10 -4 10 -6 0 -6 -7 -1 -10 -6 -7 -11 3 -5 1 -10 -5 -10 -8 0 -8 -6 0 -20 8
-15 8 -20 -2 -20 -9 0 -9 -3 2 -10 8 -5 10 -10 3 -10 -6 0 -10 -11 -8 -25 1
-14 -1 -25 -6 -25 -4 0 -4 -13 1 -30 5 -17 5 -30 0 -30 -5 0 -7 -9 -5 -20 2
-11 0 -20 -5 -20 -5 0 -5 -13 0 -30 5 -16 5 -30 1 -30 -4 0 -5 -20 -1 -45 4
-27 3 -42 -3 -38 -5 3 -6 -3 -2 -16 4 -13 2 -21 -6 -21 -9 0 -8 -4 1 -15 10
-12 10 -15 0 -15 -10 0 -10 -3 -1 -14 9 -11 9 -15 -1 -19 -10 -4 -10 -6 1 -6
11 -1 11 -4 0 -18 -12 -15 -12 -16 1 -8 13 8 13 7 1 -8 -7 -9 -10 -17 -5 -17
5 0 2 -5 -6 -10 -11 -7 -11 -10 -2 -10 7 0 11 -4 8 -8 -3 -5 -6 -29 -7 -55 -2
-26 -8 -47 -13 -47 -8 0 -8 -3 -1 -8 12 -8 13 -27 3 -37 -4 -4 -3 -16 3 -26 5
-11 6 -19 1 -19 -4 0 -8 -9 -8 -20 0 -11 3 -20 7 -20 9 0 6 -27 -4 -36 -3 -4
-2 -15 4 -25 5 -11 6 -19 1 -19 -4 0 -8 -9 -8 -20 0 -11 3 -20 7 -20 9 0 6
-27 -4 -36 -3 -4 -2 -15 4 -25 5 -11 6 -19 1 -19 -4 0 -8 -9 -8 -20 0 -11 3
-20 7 -20 9 0 6 -27 -4 -36 -3 -4 -2 -15 4 -25 5 -11 6 -19 1 -19 -4 0 -8 -9
-8 -20 0 -11 5 -20 10 -20 5 0 6 -3 3 -7 -4 -3 -2 -12 4 -20 9 -10 8 -13 -2
-13 -11 0 -11 -2 1 -10 8 -5 10 -10 5 -10 -11 0 -10 -73 1 -99 10 -23 13 -39
16 -99 2 -28 6 -52 11 -52 4 0 3 -9 -3 -20 -7 -14 -7 -20 0 -20 5 0 10 -9 10
-20 0 -11 5 -20 11 -20 8 0 8 -5 -1 -15 -7 -8 -8 -15 -3 -15 6 0 9 -12 9 -27
-1 -16 3 -34 8 -40 4 -7 5 -13 2 -13 -4 0 0 -8 10 -17 11 -12 13 -18 5 -21 -9
-3 -7 -11 5 -29 9 -14 11 -22 4 -18 -7 4 -5 -4 4 -18 9 -13 16 -29 15 -33 -4
-16 14 -68 27 -82 7 -7 11 -19 8 -27 -4 -8 -1 -15 6 -15 6 0 8 -4 5 -10 -3 -5
-1 -10 5 -10 6 0 8 -4 5 -10 -3 -5 -1 -10 5 -10 6 0 9 -4 6 -9 -3 -4 1 -16 8
-27 8 -10 12 -24 9 -31 -3 -7 0 -13 5 -13 6 0 13 -8 16 -17 3 -10 17 -31 30
-46 14 -16 22 -35 19 -43 -3 -8 0 -14 6 -14 6 0 11 -7 11 -15 0 -7 8 -19 17
-24 10 -6 15 -11 11 -11 -8 0 18 -34 55 -72 9 -10 17 -22 17 -28 0 -5 4 -10
10 -10 13 0 59 -48 52 -54 -3 -3 2 -6 12 -6 9 0 14 -4 11 -10 -3 -5 0 -10 7
-10 7 0 32 -19 56 -41 23 -22 42 -37 42 -33 0 5 7 -2 16 -14 8 -12 24 -22 35
-22 10 0 19 -5 19 -11 0 -16 31 -38 53 -39 9 0 17 -4 17 -10 0 -5 9 -10 20
-10 11 0 20 -4 20 -10 0 -5 8 -10 18 -10 9 0 23 -9 30 -20 7 -11 21 -20 32
-20 11 0 20 -4 20 -10 0 -5 14 -10 30 -10 17 0 30 -5 30 -11 0 -5 5 -7 10 -4
6 3 17 -1 26 -9 9 -9 20 -14 25 -11 5 4 9 1 9 -6 0 -6 8 -9 20 -6 11 3 20 1
20 -5 0 -5 5 -6 10 -3 5 3 10 1 10 -5 0 -6 5 -8 11 -4 6 3 15 1 19 -7 5 -7 17
-13 27 -15 40 -4 75 -14 87 -23 7 -6 16 -8 19 -5 4 4 17 0 30 -9 13 -8 38 -14
56 -13 18 1 34 -1 37 -5 3 -5 11 -6 19 -2 8 3 15 0 15 -7 0 -9 3 -10 13 -1 10
8 17 7 25 -1 7 -7 12 -8 12 -4 0 5 11 1 24 -8 17 -11 27 -12 32 -5 4 8 9 7 14
-2 7 -10 11 -10 24 0 11 9 16 10 16 2 0 -6 16 -11 35 -11 21 0 35 -5 35 -12 0
-9 4 -8 11 2 8 11 12 12 16 3 3 -9 10 -10 24 -3 14 8 19 7 19 -2 0 -9 3 -9 10
2 7 11 10 11 10 2 0 -7 5 -10 10 -7 5 3 10 1 10 -5 0 -6 3 -9 7 -7 5 3 22 -13
38 -34 17 -21 35 -38 41 -39 14 0 26 -28 18 -41 -3 -5 0 -9 6 -9 6 0 8 -4 5
-10 -3 -5 -1 -10 5 -10 6 0 8 -5 5 -11 -4 -5 2 -18 14 -28 11 -10 17 -22 13
-26 -4 -5 1 -5 10 -2 10 4 18 2 18 -4 0 -6 4 -7 10 -4 5 3 10 1 10 -5 0 -6 4
-9 9 -6 5 4 11 1 13 -5 2 -7 17 -13 33 -15 15 -2 31 -7 34 -11 3 -4 20 -10 36
-12 17 -1 33 -7 36 -13 3 -5 17 -10 30 -11 13 -1 30 -7 37 -14 17 -17 36 -17
26 0 -6 9 -5 9 8 0 8 -7 18 -10 21 -6 4 3 7 2 7 -4 0 -6 7 -14 16 -17 10 -4
13 -2 8 7 -6 9 -5 9 8 0 8 -7 18 -10 21 -6 4 3 7 2 7 -3 0 -5 14 -11 32 -12
18 -2 35 -6 38 -10 6 -9 26 -9 35 0 4 4 18 0 31 -8 13 -9 28 -13 34 -9 5 3 10
1 10 -5 0 -6 5 -8 10 -5 6 4 24 0 40 -9 17 -8 28 -11 25 -6 -3 5 4 8 15 7 11
-1 20 -4 20 -7 0 -4 10 -6 23 -5 12 1 25 -3 29 -9 5 -7 8 -6 8 4 0 13 1 13 10
0 5 -8 10 -10 10 -5 0 6 17 9 40 7 22 -2 40 -8 40 -12 0 -4 9 -10 20 -13 11
-3 20 -2 20 2 0 3 18 5 40 3 22 -2 38 -8 35 -12 -3 -5 8 -5 25 0 19 5 30 5 30
-1 0 -6 5 -7 10 -4 6 4 18 1 27 -7 14 -11 16 -11 8 2 -8 13 -7 13 9 0 20 -16
52 -19 79 -7 11 5 17 3 17 -4 0 -8 5 -7 17 2 11 10 14 10 9 2 -5 -10 7 -13 51
-14 32 -1 62 -1 67 0 5 1 12 -3 16 -8 8 -14 125 -20 163 -10 16 5 25 4 22 -2
-4 -5 -1 -9 4 -9 6 0 11 4 11 8 0 10 13 12 65 15 19 1 35 5 35 9 0 3 9 4 19 1
10 -3 29 1 41 7 18 10 21 10 14 -2 -6 -11 -5 -11 9 1 10 8 17 9 17 3 0 -7 10
-8 30 -2 21 6 30 5 30 -3 0 -7 4 -6 10 3 5 8 10 12 10 7 0 -4 11 0 25 9 16 10
25 12 25 5 0 -8 6 -9 18 -3 9 4 29 8 45 7 15 0 27 2 27 5 0 3 18 6 40 7 67 4
88 8 83 16 -2 4 1 7 6 7 6 0 11 -6 11 -12 0 -9 4 -8 10 2 9 13 10 13 10 0 0
-13 1 -13 10 0 9 13 10 13 10 0 0 -13 1 -13 10 0 5 8 10 11 10 6 0 -5 7 -3 15
4 12 10 15 10 15 0 0 -8 4 -9 13 -3 6 5 24 9 40 8 15 0 27 2 27 6 0 5 9 6 20
4 11 -2 20 0 20 5 0 5 9 7 20 5 11 -2 20 1 20 6 0 6 5 7 10 4 6 -3 10 -2 10 3
0 5 7 9 15 9 8 0 15 -4 15 -9 0 -5 9 -4 20 2 11 6 25 8 30 5 6 -3 10 -1 10 5
0 6 4 9 9 5 5 -3 12 -1 16 5 4 6 10 8 15 5 5 -3 12 -1 15 5 4 6 15 8 25 5 10
-3 21 -1 25 5 3 6 11 8 16 5 5 -4 9 -1 9 6 0 7 3 9 7 6 3 -4 13 -1 21 6 13 10
14 9 7 -2 -5 -9 -4 -12 2 -8 10 6 63 29 73 32 67 16 163 59 153 68 -3 4 4 5
16 2 14 -2 21 1 21 11 0 8 6 17 14 20 8 3 13 14 11 25 -2 11 0 17 6 14 5 -4 9
3 9 14 0 22 94 133 104 124 3 -4 6 -1 6 6 0 7 8 11 18 9 9 -1 23 1 30 5 6 5
12 4 12 -1 0 -10 36 -9 46 1 4 4 21 7 38 7 17 0 38 4 45 9 9 6 22 6 33 0 12
-7 18 -6 18 2 0 6 7 9 15 5 8 -3 15 -1 15 4 0 5 6 7 14 4 8 -3 17 0 21 6 5 8
11 8 21 -1 11 -9 14 -9 14 1 0 8 3 10 6 7 4 -3 16 -2 27 4 14 8 18 8 13 0 -4
-6 -2 -11 3 -11 6 0 11 5 11 10 0 6 11 8 25 4 16 -4 25 -2 25 6 0 6 5 8 10 5
6 -3 10 -1 10 6 0 7 3 9 7 6 3 -4 13 -1 21 6 13 10 14 9 8 -1 -5 -8 8 -5 33 7
26 14 41 17 41 10 0 -8 7 -6 18 4 10 10 22 14 25 10 4 -3 7 -1 7 6 0 7 4 9 10
6 6 -3 10 -2 10 2 0 5 9 10 20 11 44 4 49 6 54 19 3 8 11 11 16 8 6 -4 17 -1
25 5 8 7 15 9 15 5 0 -5 9 0 19 9 15 13 20 14 24 4 4 -11 6 -11 6 0 1 7 6 10
11 7 6 -3 10 -1 10 4 0 6 6 11 13 11 8 0 24 9 37 20 12 11 27 17 31 14 5 -3 9
-1 9 4 0 6 18 19 40 30 22 10 37 14 34 8 -4 -6 4 0 17 14 13 14 42 34 64 46
22 12 39 27 37 33 -1 7 2 10 8 6 5 -3 10 -1 10 4 0 6 4 10 9 9 5 -2 10 2 11 7
2 6 16 18 31 27 16 10 29 23 29 28 0 6 5 8 10 5 6 -3 10 -2 10 2 0 5 27 37 60
71 33 35 60 68 60 73 0 6 5 7 12 3 8 -5 9 -2 5 9 -4 10 -2 16 6 14 7 -1 11 6
9 16 -2 10 6 21 20 27 13 5 19 9 14 9 -4 1 -1 13 9 27 12 18 13 24 4 19 -8 -3
-3 3 10 14 13 12 20 21 17 21 -4 0 6 17 21 37 15 20 22 34 16 29 -9 -5 -11 -2
-7 8 3 9 10 16 16 16 5 0 6 5 3 10 -3 5 -1 10 5 10 6 0 8 5 4 11 -3 6 -2 14 5
18 6 4 12 19 13 33 1 15 6 24 10 22 4 -3 8 0 8 5 0 22 2 26 17 44 9 9 12 17 6
17 -5 0 -10 7 -10 15 0 8 3 12 6 10 4 -2 11 8 18 21 8 18 8 22 0 17 -7 -4 -6
1 2 10 7 9 11 24 7 32 -3 8 -1 15 5 15 6 0 7 4 4 10 -3 5 -1 10 4 10 6 0 11
15 11 33 0 18 5 38 12 45 8 8 9 12 1 12 -9 0 -11 19 -3 40 1 3 2 8 1 12 0 5 3
8 7 8 10 0 11 6 14 77 2 29 6 53 11 53 4 0 7 5 7 11 0 5 -4 7 -10 4 -7 -4 -7
3 0 20 6 15 8 30 5 35 -3 4 2 10 10 14 11 4 13 11 5 31 -5 14 -6 25 -2 25 4 0
6 18 4 40 -2 22 0 40 5 40 5 0 9 9 9 20 0 11 -4 20 -8 20 -5 0 -4 9 2 20 6 12
7 20 1 20 -10 0 -9 19 2 38 5 7 3 12 -3 12 -6 0 -8 5 -3 13 12 19 12 37 1 37
-7 0 -7 5 1 13 7 10 7 17 0 24 -8 8 -8 13 0 17 8 5 8 13 1 27 -6 10 -7 19 -2
19 4 0 8 9 8 20 0 11 -3 20 -7 20 -9 0 -6 21 4 38 5 7 3 12 -3 12 -6 0 -8 5
-3 13 11 18 12 37 2 37 -6 0 -5 9 2 21 9 17 8 20 -3 13 -11 -6 -11 -5 1 9 7 9
10 17 5 17 -5 0 -9 10 -10 23 0 12 -2 55 -4 95 -2 39 -7 72 -12 72 -5 0 -4 9
2 20 8 15 8 20 -1 20 -8 0 -8 4 1 15 10 12 10 15 0 15 -10 0 -10 3 0 15 7 8 8
15 3 15 -5 0 -10 42 -10 93 0 51 -6 103 -12 115 -6 12 -8 22 -3 22 5 0 9 7 9
15 0 8 -4 15 -9 15 -5 0 -4 9 2 20 8 14 8 20 0 20 -7 0 -10 6 -7 13 2 6 0 20
-5 30 -6 11 -5 17 2 17 8 0 8 6 0 20 -6 11 -8 25 -5 30 3 6 1 10 -6 10 -8 0
-8 4 1 15 9 11 9 15 1 15 -7 0 -9 5 -6 10 3 6 2 10 -3 10 -5 0 -12 9 -15 20
-3 11 0 20 5 20 6 0 3 9 -7 20 -10 11 -13 20 -7 20 12 0 5 31 -9 40 -4 3 -9
25 -10 48 -2 24 -7 46 -11 48 -5 3 -6 10 -3 15 4 5 1 9 -5 9 -6 0 -8 5 -5 10
3 6 0 10 -7 10 -10 0 -10 2 1 9 9 6 10 11 2 15 -6 4 -11 20 -11 37 0 16 -4 29
-10 29 -5 0 -10 16 -10 35 0 20 -5 35 -12 35 -6 0 -9 3 -5 6 3 4 0 19 -8 34
-8 15 -11 30 -8 34 4 3 1 6 -6 6 -7 0 -9 5 -6 10 3 6 1 10 -6 10 -8 0 -8 4 1
15 9 10 9 15 1 15 -6 0 -10 3 -9 8 1 4 -6 25 -15 46 -10 22 -15 41 -12 44 3 3
-3 14 -12 25 -10 10 -17 21 -15 23 1 2 2 5 1 7 0 1 -2 11 -4 22 -2 11 -10 24
-17 30 -8 5 -12 18 -10 29 2 11 0 16 -7 12 -6 -4 -11 0 -11 11 0 11 -6 25 -12
32 -11 11 -10 12 1 6 9 -5 8 1 -4 18 -9 15 -14 30 -11 36 3 5 -1 12 -10 15 -8
3 -12 10 -9 16 3 5 2 10 -4 10 -23 0 10 49 73 111 37 35 69 72 72 81 3 10 13
18 21 18 9 0 14 3 11 6 -4 3 10 22 30 41 21 20 30 32 22 28 -8 -4 0 5 17 22
18 16 30 33 26 36 -3 4 -2 7 4 7 15 0 84 91 77 102 -4 5 -14 8 -23 5 -10 -2
-26 2 -36 9 -14 10 -22 11 -32 3 -10 -9 -13 -8 -13 1 0 10 -3 10 -15 0 -8 -7
-15 -8 -15 -2 0 5 -9 12 -20 15 -12 3 -18 1 -14 -5 4 -6 -2 -6 -14 1 -11 6
-22 7 -24 2 -2 -4 -23 -3 -48 3 -39 10 -45 14 -42 36 1 13 7 27 14 31 6 4 8
11 4 17 -3 6 -3 12 1 14 5 1 18 22 30 46 12 23 16 39 10 35 -7 -3 -4 3 6 14
10 11 17 24 16 29 -1 5 5 26 14 46 10 21 17 43 17 50 0 8 8 24 17 37 9 14 11
21 5 17 -16 -10 -15 6 1 23 10 11 9 12 -3 6 -10 -6 -8 -1 4 13 13 15 15 22 6
22 -10 0 -10 3 0 14 6 8 10 23 8 33 -1 10 1 24 5 31 5 6 5 12 0 12 -4 0 -3 4
3 8 7 4 14 21 15 37 2 17 8 33 14 37 6 5 5 8 -4 8 -11 0 -11 3 0 17 12 14 12
15 1 9 -11 -7 -12 -4 -3 12 6 11 12 43 13 71 2 28 5 51 8 51 11 0 6 40 -5 40
-5 0 -3 5 5 10 11 7 11 10 2 10 -10 0 -10 5 -2 20 8 14 8 20 0 20 -6 0 -8 5
-4 12 11 17 12 48 3 48 -8 0 -6 26 4 36 3 4 2 15 -4 25 -5 11 -6 19 -1 19 4 0
8 9 8 20 0 11 -3 20 -7 20 -9 0 -6 27 4 36 3 4 2 15 -4 25 -7 14 -6 19 3 19 9
0 9 3 0 12 -16 16 -15 31 0 23 7 -4 4 1 -6 9 -11 9 -15 16 -9 16 6 0 7 16 3
45 -4 24 -3 42 2 39 4 -3 8 0 8 5 0 6 -5 11 -11 11 -6 0 -9 7 -6 15 4 8 2 17
-4 21 -6 4 -6 11 2 20 9 11 9 14 -1 14 -7 0 -10 7 -6 15 3 8 0 15 -7 15 -9 0
-9 2 0 8 10 7 10 12 -1 27 -9 13 -11 27 -5 42 5 13 5 23 1 23 -4 0 -8 9 -9 20
-1 13 3 18 10 14 7 -3 4 1 -6 9 -10 8 -13 17 -8 18 7 3 6 14 -4 32 -8 17 -10
27 -3 27 7 0 6 6 -2 15 -10 12 -10 15 1 15 10 0 10 3 3 8 -6 4 -10 15 -8 25 1
9 -4 24 -12 31 -11 11 -11 16 -1 19 9 4 9 6 -1 6 -7 1 -16 -7 -19 -16 -4 -9
-14 -24 -22 -34 -52 -57 -61 -68 -61 -78 0 -7 -5 -9 -12 -5 -7 5 -9 2 -6 -7 4
-10 -1 -15 -15 -16 -29 -3 -59 16 -53 32 3 8 0 20 -7 27 -7 7 -12 19 -12 27 0
8 -6 16 -12 19 -7 2 -13 0 -13 -5 0 -4 -11 -21 -25 -37 -23 -27 -29 -40 -26
-58 0 -5 -4 -8 -9 -8 -6 0 -10 -7 -10 -16 0 -8 -4 -12 -10 -9 -5 3 -10 2 -10
-4 0 -5 -12 -23 -26 -40 -14 -17 -22 -31 -18 -31 4 0 1 -6 -8 -12 -8 -7 -40
-43 -71 -80 -30 -36 -59 -63 -63 -60 -4 4 -4 2 -1 -4 4 -7 -9 -26 -28 -43 -20
-17 -32 -31 -28 -31 4 -1 -3 -7 -17 -15 -14 -8 -22 -14 -18 -15 4 0 -5 -13
-20 -28 -15 -15 -30 -26 -34 -24 -5 2 -8 -4 -8 -12 0 -8 -9 -18 -21 -21 -11
-4 -18 -9 -15 -12 3 -3 -11 -19 -31 -34 -20 -16 -34 -29 -31 -29 3 0 -25 -30
-61 -68 -36 -37 -68 -67 -70 -65 -2 1 -21 -18 -42 -43 -21 -25 -39 -42 -39
-38 0 3 -14 -8 -32 -25 -17 -17 -36 -31 -40 -31 -5 0 -6 -4 -3 -10 3 -5 1 -10
-5 -10 -16 0 -70 -46 -63 -53 3 -3 -9 -4 -27 -2 -25 3 -106 55 -85 55 3 0 -3
9 -14 21 -11 12 -24 18 -30 14 -7 -4 -10 -1 -9 7 2 7 -3 12 -10 10 -7 -1 -15
5 -18 13 -4 8 -15 15 -25 15 -10 0 -19 6 -19 13 0 8 -4 7 -10 -3 -8 -13 -10
-12 -10 3 0 9 -7 17 -16 17 -8 0 -12 5 -9 10 3 6 0 10 -8 10 -7 0 -22 8 -33
18 -10 9 -31 23 -46 31 -15 8 -37 22 -47 33 -11 10 -25 18 -31 18 -5 0 -10 5
-10 10 0 6 -9 10 -20 10 -11 0 -20 5 -20 10 0 6 -9 10 -21 10 -11 0 -17 5 -14
10 3 6 -1 10 -9 10 -9 0 -16 5 -16 11 0 5 -4 8 -9 4 -5 -3 -17 2 -25 11 -9 8
-16 13 -16 9 0 -4 -7 1 -16 9 -8 9 -20 14 -25 11 -5 -4 -9 -1 -9 5 0 6 -4 8
-10 5 -5 -3 -10 -1 -10 6 0 7 -3 9 -7 6 -3 -4 -15 1 -26 10 -15 13 -19 14 -13
3 4 -8 0 -6 -9 5 -9 11 -23 19 -31 17 -8 -2 -14 2 -14 7 0 9 -27 22 -59 27 -8
2 -18 9 -22 16 -5 7 -9 9 -9 3 0 -5 -4 -4 -8 2 -5 7 -20 14 -35 15 -15 1 -27
5 -27 9 0 7 -81 34 -92 31 -5 -1 -8 3 -8 9 0 5 -4 7 -10 4 -5 -3 -10 -1 -10 4
0 6 -5 11 -11 11 -5 0 -7 -6 -3 -12 4 -7 -2 -5 -14 6 -12 10 -33 19 -47 19
-14 0 -25 3 -25 8 0 5 -9 9 -19 9 -11 0 -22 6 -24 13 -4 9 -6 8 -6 -2 -1 -10
-4 -11 -14 -3 -7 6 -26 13 -42 16 -17 2 -30 5 -30 6 0 1 -16 4 -35 7 -19 2
-38 10 -42 16 -6 9 -8 8 -8 -2 0 -9 -4 -10 -12 -5 -7 5 -25 9 -40 8 -16 0 -28
2 -28 6 0 5 -13 7 -30 6 -16 -1 -30 2 -30 6 0 5 -13 7 -28 6 -15 -1 -33 1 -40
6 -7 4 -12 2 -12 -4 0 -8 -6 -8 -20 0 -14 8 -20 8 -20 0 0 -6 -13 -2 -30 10
-17 12 -30 18 -30 13 0 -9 -73 -8 -89 2 -6 3 -11 2 -11 -2 0 -5 -24 -7 -52 -4
-29 4 -77 4 -106 1 -29 -3 -59 -2 -67 3 -8 4 -15 4 -15 -1 0 -4 -24 -6 -52 -3
-29 4 -77 4 -106 1 -29 -3 -59 -2 -67 3 -9 5 -15 4 -15 -3 0 -6 -4 -9 -9 -5
-5 3 -12 1 -16 -5 -4 -6 -11 -8 -16 -5 -5 4 -9 0 -9 -7 0 -9 -3 -9 -10 2 -9
13 -10 13 -10 0 0 -13 -1 -13 -10 0 -5 8 -10 11 -10 5 0 -6 -26 -10 -59 -10
-33 1 -57 -3 -54 -8 3 -5 -4 -6 -16 -2 -13 4 -21 2 -21 -5 0 -6 -4 -8 -10 -5
-5 3 -10 1 -10 -6 0 -8 -4 -8 -15 1 -12 10 -15 10 -15 0 0 -10 -3 -10 -14 -1
-10 9 -16 9 -21 1 -4 -6 -13 -9 -21 -6 -8 3 -14 1 -14 -3 0 -5 -8 -7 -18 -4
-10 2 -24 -3 -32 -11 -10 -12 -16 -14 -26 -5 -11 9 -14 8 -14 0 0 -7 -4 -9
-10 -6 -5 3 -10 1 -10 -6 0 -9 -3 -9 -14 0 -10 9 -15 8 -19 -4 -4 -8 -13 -12
-21 -9 -8 3 -17 0 -21 -5 -3 -6 -11 -9 -16 -6 -5 4 -9 0 -9 -7 0 -9 -3 -9 -10
2 -5 8 -10 10 -10 4 0 -11 -38 -27 -67 -29 -6 0 -15 -4 -20 -9 -5 -5 -2 -6 6
-1 9 5 12 4 7 -3 -3 -6 -15 -9 -26 -7 -11 2 -22 -1 -25 -6 -4 -5 -11 -7 -16
-4 -5 4 -9 1 -9 -4 0 -6 -12 -11 -26 -11 -14 0 -22 -4 -19 -10 3 -5 0 -7 -8
-4 -8 3 -18 0 -22 -5 -3 -6 -11 -9 -16 -6 -5 4 -9 1 -9 -5 0 -7 -7 -9 -16 -6
-8 3 -12 2 -9 -4 5 -9 -14 -14 -36 -12 -4 1 -18 -9 -31 -21 -14 -13 -30 -21
-36 -19 -7 2 -15 -3 -18 -12 -3 -9 -11 -13 -17 -9 -5 3 -15 0 -21 -8 -6 -8
-15 -14 -21 -15 -24 -3 -55 -17 -55 -26 0 -5 -4 -6 -10 -3 -5 3 -10 1 -10 -4
0 -6 -7 -11 -15 -11 -9 0 -18 -7 -21 -15 -4 -8 -10 -12 -15 -9 -5 3 -9 1 -9
-4 0 -5 -22 -19 -50 -31 -28 -12 -50 -26 -50 -32 0 -6 -4 -8 -9 -5 -5 3 -12
-1 -15 -10 -3 -8 -10 -12 -16 -9 -6 3 -13 -1 -16 -9 -3 -9 -10 -16 -16 -16
-11 0 -81 -51 -86 -63 -2 -4 -8 -5 -13 -1 -5 3 -9 0 -9 -7 0 -7 -3 -10 -6 -6
-3 3 -15 -3 -27 -13 -11 -11 -24 -17 -29 -14 -4 3 -8 0 -8 -5 0 -6 -4 -11 -10
-11 -13 0 -56 -43 -53 -52 2 -5 -2 -8 -7 -8 -6 0 -20 -9 -32 -20 -28 -26 -63
-17 -108 29 -19 20 -61 57 -92 84 -67 56 -168 158 -168 169 0 4 -9 8 -20 8
-11 0 -19 3 -19 8 3 16 -1 35 -6 30 -7 -6 -95 81 -95 94 0 5 -3 8 -7 6 -10 -5
-62 49 -55 56 5 6 -14 10 -30 7 -5 0 -8 7 -8 16 0 10 -14 27 -30 38 -16 11
-30 28 -30 38 0 9 -6 16 -12 15 -7 -2 -12 3 -10 10 1 6 -5 12 -13 12 -8 0 -14
4 -13 9 2 5 -12 23 -29 40 -18 17 -30 31 -27 31 3 0 -8 16 -25 35 -17 20 -31
40 -31 46 0 6 -4 8 -9 5 -5 -3 -14 8 -21 24 -7 17 -15 30 -19 30 -3 0 -13 15
-21 33 -7 17 -22 41 -32 51 -10 11 -18 24 -18 29 0 20 -29 -16 -40 -49 -6 -19
-16 -34 -21 -34 -6 0 -8 -4 -5 -9 3 -5 -4 -11 -15 -14 -12 -3 -19 -3 -16 -1 3
3 -10 20 -29 38 -19 18 -31 36 -27 39 3 4 -1 7 -10 7 -9 0 -19 5 -23 12 -5 7
-2 9 7 4 8 -4 4 1 -8 12 -12 11 -19 22 -16 26 4 3 -1 6 -11 6 -9 0 -14 5 -11
10 3 6 4 10 1 10 -3 0 -7 -4 -10 -9z"/>
</g>
</svg>
